<?xml version="1.0" encoding="UTF-8"?>
<svg id="Layer_1" data-name="Layer 1" xmlns="http://www.w3.org/2000/svg" viewBox="0 0 835.53 912.1">
  <defs>
    <style>
      .cls-1 {
        fill: #0c78be;
      }

      .cls-2 {
        fill: #d61a3a;
      }
    </style>
  </defs>
  <g>
    <path class="cls-1" d="M355.23,171.21c32.26-11.43,66.42-17.38,100.81-17.38h0c80.15,0,155.67,31.15,212.72,87.73,.3,.29,.6,.58,.9,.88,10.68,10.68,20.73,22.4,29.89,34.85,2.71,3.68,5.31,7.43,7.84,11.21l128.13-85.42C753.75,80.64,614.33,0,456.05,0c-34.65,0-68.38,3.88-100.82,11.2V171.21Z"/>
    <path class="cls-1" d="M170.57,520.12V100.43C66.58,184.02,0,312.25,0,456.05c0,21.75,1.56,43.13,4.5,64.07H170.57Z"/>
    <path class="cls-1" d="M170.57,602.99H24.2c28.18,82.86,79.56,154.98,146.37,208.68v-208.68Z"/>
    <path class="cls-1" d="M707.43,623.64c-.3,.44-.57,.89-.87,1.34-56.44,83.47-150.09,133.3-250.52,133.3-15.37,0-30.83-1.17-45.94-3.49-18.76-2.88-37.09-7.56-54.88-13.88v159.99c32.43,7.32,66.17,11.2,100.82,11.2,158.27,0,297.7-80.64,379.48-203.07l-128.1-85.4Z"/>
  </g>
  <path class="cls-2" d="M456.05,225c-127.61,0-231.05,103.45-231.05,231.05s103.44,231.05,231.05,231.05,231.05-103.45,231.05-231.05-103.45-231.05-231.05-231.05Zm142.43,313.23l-112.3-30.13-30.13,112.31-30.13-112.31-112.31,30.13,82.18-82.18-82.18-82.18,112.31,30.13,30.13-112.31,30.13,112.31,112.3-30.13-82.18,82.18,82.18,82.18Z"/>
</svg>